# xmcd
#
# Track frame offsets: 
#        150
#        23476
#        48116
#        71397
#        94352
#        117022
#        140501
#        163587
#        186950
#        210535
#        234372
#        258375
#
# Disc length: 3765 seconds
#
# Revision: 1
# Processed by: cddbd v1.5.2PL0 Copyright (c) Steve Scherf et al.
# Submitted via: ExactAudioCopy v0.95a5
#
DISCID=9a0eb30c
DTITLE=Kevin Kendle - Distant Horizons Vol 2 
DYEAR=2004
DGENRE=New Age
TTITLE0=The Brook
TTITLE1=Dawn Chorus
TTITLE2=Journey's End
TTITLE3=Above the Clouds
TTITLE4=Ancient Hedgerows
TTITLE5=Melting Snow
TTITLE6=Ever Upwards
TTITLE7=The Mooring
TTITLE8=Scented Air
TTITLE9=Stillness
TTITLE10=Silver Frost
TTITLE11=The Realms Beyond
EXTD=YEAR: 2004
EXTT0=
EXTT1=
EXTT2=
EXTT3=
EXTT4=
EXTT5=
EXTT6=
EXTT7=
EXTT8=
EXTT9=
EXTT10=
EXTT11=
PLAYORDER=
